<?xml version="1.0" standalone="no"?>
<!DOCTYPE svg PUBLIC "-//W3C//DTD SVG 20010904//EN"
 "http://www.w3.org/TR/2001/REC-SVG-20010904/DTD/svg10.dtd">
<svg version="1.0" xmlns="http://www.w3.org/2000/svg"
 width="496.000000pt" height="488.000000pt" viewBox="0 0 496.000000 488.000000"
 preserveAspectRatio="xMidYMid meet">

<g transform="translate(0.000000,488.000000) scale(0.100000,-0.100000)"
fill="#000000" stroke="none">
<path d="M1144 4586 c-113 -36 -204 -153 -204 -261 0 -91 -56 -149 -152 -160
-121 -13 -208 -72 -255 -172 l-24 -52 0 -386 c0 -270 4 -398 12 -423 25 -78
93 -146 175 -178 35 -13 44 -22 50 -48 23 -107 123 -209 247 -250 15 -5 17
-19 17 -116 l0 -110 -125 0 c-68 0 -148 -5 -177 -11 -166 -36 -300 -166 -337
-330 -6 -24 -11 -110 -11 -191 l0 -146 280 -342 c154 -188 280 -346 280 -351
0 -5 -49 -9 -109 -9 -60 0 -116 -3 -124 -6 -8 -3 -52 -61 -96 -128 l-81 -122
-1 -250 c0 -243 0 -249 22 -267 20 -16 89 -17 1131 -17 l1109 0 24 25 25 24 0
238 0 237 -81 123 c-45 67 -88 128 -95 134 -8 6 -56 10 -123 10 -60 -1 -112 2
-114 7 -6 8 -9 4 327 412 l226 275 -2 180 c-3 179 -3 180 -35 248 -60 127
-181 223 -312 247 -29 5 -110 10 -178 10 l-124 0 3 111 3 111 39 13 c98 34
206 146 222 232 6 30 13 38 52 54 71 31 127 83 159 147 l28 57 0 395 0 395
-28 57 c-46 94 -119 142 -238 160 -76 11 -127 39 -146 78 -6 14 -16 58 -21 98
-17 123 -92 213 -205 247 -61 18 -281 20 -357 4 -28 -6 -74 -27 -103 -46 -50
-34 -53 -34 -77 -18 -14 9 -50 28 -80 43 -52 25 -64 27 -215 29 -111 2 -173
-2 -201 -11z m359 -147 c12 -6 47 -37 78 -70 41 -43 63 -59 83 -59 26 0 31 4
86 71 50 61 78 69 248 69 148 0 151 0 182 -26 41 -35 56 -67 63 -136 14 -146
119 -251 266 -265 65 -7 96 -20 131 -58 l25 -27 3 -383 3 -383 -27 -31 c-32
-39 -73 -61 -112 -61 -38 0 -66 -32 -82 -95 -7 -27 -21 -67 -31 -87 -19 -37
-75 -88 -97 -88 -9 0 -12 119 -12 460 l0 460 75 0 75 0 0 70 0 70 -62 0 c-595
3 -694 6 -728 21 -52 23 -91 69 -172 204 -82 134 -107 156 -154 134 -25 -12
-38 -36 -92 -169 -34 -85 -69 -162 -78 -170 -11 -12 -45 -15 -152 -17 -75 -1
-140 -2 -144 -2 -5 -1 -8 -32 -8 -71 l0 -70 70 0 70 0 0 -460 c0 -253 -3 -460
-7 -460 -20 0 -72 41 -91 71 -11 19 -28 64 -37 101 -10 37 -24 73 -31 79 -8 6
-36 16 -62 20 -57 11 -91 35 -114 80 -16 30 -18 71 -18 389 0 318 2 359 18
389 25 51 60 71 136 81 162 20 253 110 276 272 12 82 27 110 73 138 28 17 51
20 180 20 87 0 157 -5 170 -11z m-75 -507 c49 -82 105 -135 181 -171 55 -26
60 -26 309 -29 l252 -4 0 -341 c0 -252 -4 -359 -14 -407 -44 -208 -213 -368
-424 -400 -177 -28 -368 52 -476 200 -92 125 -104 202 -104 642 l0 308 40 10
c67 19 121 78 159 175 18 47 34 85 35 85 1 0 20 -31 42 -68z m-56 -1432 c251
-123 542 -79 744 114 26 25 49 46 51 46 2 0 3 -74 3 -164 0 -226 -19 -210 242
-216 167 -4 209 -8 238 -23 62 -30 108 -76 137 -135 26 -52 28 -68 31 -187 l3
-130 -173 -211 c-95 -116 -222 -271 -282 -345 -60 -74 -123 -149 -139 -166
l-31 -33 -536 1 -537 0 -65 77 c-61 73 -411 501 -511 626 l-48 58 5 123 c3 97
8 132 25 171 28 64 84 120 146 150 47 22 61 24 237 24 252 0 239 -12 240 205
0 88 3 164 5 168 3 4 33 -19 68 -52 41 -38 95 -75 147 -101z m1246 -1670 l52
-80 0 -175 0 -175 -1010 0 -1010 0 0 173 0 172 55 83 55 82 903 0 902 0 53
-80z"/>
<path d="M1342 3580 c-49 -20 -54 -95 -7 -126 73 -48 147 61 79 115 -29 23
-38 24 -72 11z"/>
<path d="M1660 3465 c0 -151 -8 -165 -90 -165 l-50 0 0 -75 0 -75 41 0 c78 0
130 20 180 70 58 58 72 111 67 260 l-3 105 -72 3 -73 3 0 -126z"/>
<path d="M1920 3577 c-56 -28 -48 -110 13 -131 22 -8 33 -6 55 11 38 28 41 74
8 108 -28 28 -40 30 -76 12z"/>
<path d="M1373 3007 c-35 -17 -63 -34 -63 -37 0 -3 17 -27 38 -55 27 -36 56
-60 106 -85 68 -34 71 -35 212 -38 l144 -4 0 71 0 71 -57 0 c-190 1 -239 13
-290 74 l-28 34 -62 -31z"/>
<path d="M1860 2298 c-25 -129 -92 -277 -172 -380 l-28 -36 -50 52 c-54 58
-146 108 -228 125 -29 6 -125 11 -212 11 l-160 0 0 -74 0 -74 188 -4 c186 -3
187 -3 241 -33 103 -57 151 -154 151 -307 l0 -88 69 0 68 0 5 103 c7 153 49
231 158 295 44 26 50 27 233 30 l187 4 0 75 0 75 -185 -4 c-162 -3 -184 -1
-179 12 22 51 55 168 60 214 l6 53 -38 6 c-22 4 -53 7 -70 7 -31 0 -32 -2 -44
-62z"/>
<path d="M2530 4525 l0 -75 957 0 958 0 -105 -105 -105 -105 -707 0 -708 0 0
-75 0 -75 685 0 685 0 0 -720 c0 -396 -2 -720 -5 -720 -2 0 -92 63 -200 140
-145 104 -203 140 -224 140 -19 0 -126 -51 -292 -139 -218 -116 -266 -137
-279 -128 -10 7 -55 46 -101 88 -155 141 -211 189 -220 189 -12 0 -88 -83 -89
-96 0 -6 63 -67 140 -135 77 -68 140 -126 140 -129 0 -3 -45 -29 -100 -58 -55
-29 -100 -55 -100 -58 0 -2 15 -31 33 -64 l33 -59 45 23 c24 13 206 109 405
214 198 105 365 192 370 194 6 2 108 -66 227 -151 l217 -155 0 -273 0 -273
-540 0 -540 0 0 -70 0 -70 563 0 562 0 110 -110 110 -110 -748 0 -747 0 0 -70
0 -70 850 0 849 0 21 22 c20 22 20 26 20 1565 l0 1544 -25 24 -24 25 -1061 0
-1060 0 0 -75z m2029 -1517 c0 -727 -3 -1326 -6 -1331 -3 -5 -52 37 -109 94
l-104 104 0 1130 0 1130 102 102 c56 56 105 100 109 97 4 -2 8 -599 8 -1326z"/>
<path d="M3229 3717 c-65 -19 -132 -60 -173 -109 -157 -182 -107 -443 106
-559 60 -32 68 -34 163 -34 90 0 105 3 153 28 278 146 275 526 -6 655 -66 30
-173 39 -243 19z m191 -152 c37 -20 87 -75 104 -117 24 -57 20 -116 -11 -179
-103 -201 -404 -123 -403 105 1 151 178 260 310 191z"/>
</g>
</svg>
