<?xml version="1.0" standalone="no"?>
<!DOCTYPE svg PUBLIC "-//W3C//DTD SVG 20010904//EN"
 "http://www.w3.org/TR/2001/REC-SVG-20010904/DTD/svg10.dtd">
<svg version="1.0" xmlns="http://www.w3.org/2000/svg"
 width="496.000000pt" height="488.000000pt" viewBox="0 0 496.000000 488.000000"
 preserveAspectRatio="xMidYMid meet">

<g transform="translate(0.000000,488.000000) scale(0.100000,-0.100000)"
fill="#000000" stroke="none">
<path d="M833 4740 c-33 -14 -56 -55 -48 -87 4 -19 154 -176 450 -473 304
-304 449 -457 460 -482 19 -46 19 -106 0 -228 -8 -52 -15 -106 -15 -119 0 -29
191 -228 228 -238 13 -3 42 0 63 7 l40 14 92 -93 c118 -119 148 -131 197 -78
41 44 29 71 -87 189 -60 61 -121 117 -138 125 -16 9 -55 17 -85 17 -52 1 -58
4 -98 46 l-43 45 8 65 c4 36 8 110 8 165 0 169 16 148 -498 663 -243 244 -454
450 -469 458 -31 16 -35 16 -65 4z"/>
<path d="M606 4519 c-20 -15 -26 -29 -26 -57 0 -36 17 -54 368 -405 388 -387
388 -388 440 -351 32 22 44 58 31 91 -12 32 -680 707 -721 729 -37 19 -61 18
-92 -7z"/>
<path d="M4263 4425 c-203 -37 -404 -141 -642 -334 -115 -92 -1483 -1454
-1504 -1496 -23 -47 -35 -129 -26 -184 8 -54 19 -79 57 -129 l25 -33 -81 -82
-81 -81 -46 12 c-73 20 -143 15 -205 -14 -47 -21 -146 -116 -691 -662 -500
-501 -640 -648 -659 -687 -35 -73 -39 -181 -10 -259 27 -71 92 -141 165 -176
41 -21 65 -25 135 -25 72 0 93 4 140 27 46 23 359 331 2003 1975 1616 1617
1947 1953 1947 1975 0 40 -44 84 -123 123 -125 61 -254 77 -404 50z m270 -165
c20 -6 37 -14 37 -18 0 -5 -850 -858 -1890 -1897 -1205 -1206 -1901 -1895
-1922 -1904 -66 -27 -144 -2 -191 61 -27 36 -34 116 -13 159 25 52 1254 1276
1290 1285 17 4 49 2 73 -4 53 -15 123 -15 158 -2 39 15 212 187 235 234 33 70
23 134 -34 209 -30 39 -34 93 -12 135 21 39 1333 1344 1444 1435 320 264 603
369 825 307z"/>
<path d="M391 4304 c-48 -61 -51 -57 322 -432 188 -189 355 -353 371 -364 59
-43 130 -12 130 57 0 34 -21 57 -365 401 -346 346 -366 364 -401 364 -28 0
-42 -6 -57 -26z"/>
<path d="M189 4101 c-59 -59 -73 -42 423 -538 484 -484 503 -500 621 -522 45
-8 82 -7 173 6 l115 16 50 -49 c43 -42 49 -53 43 -77 -14 -65 13 -114 126
-229 98 -98 111 -108 144 -108 26 0 44 7 61 25 45 44 35 68 -72 177 l-97 98
12 33 c22 62 17 75 -75 169 -136 139 -122 133 -259 114 -149 -21 -200 -20
-249 3 -27 13 -183 163 -470 451 -237 237 -442 438 -457 446 -39 20 -56 18
-89 -15z"/>
<path d="M3046 2219 c-20 -15 -26 -29 -26 -58 0 -36 24 -61 710 -746 471 -471
717 -724 730 -751 25 -50 25 -87 0 -141 -32 -71 -114 -107 -193 -83 -36 10
-141 110 -757 724 -393 393 -723 716 -733 719 -22 8 -66 -9 -83 -31 -8 -9 -14
-33 -14 -52 0 -32 41 -75 718 -752 812 -811 767 -773 917 -773 96 0 171 30
232 93 66 68 88 124 88 222 0 148 39 102 -782 923 -782 780 -749 752 -807 706z"/>
</g>
</svg>
