<?xml version="1.0" standalone="no"?>
<!DOCTYPE svg PUBLIC "-//W3C//DTD SVG 20010904//EN"
 "http://www.w3.org/TR/2001/REC-SVG-20010904/DTD/svg10.dtd">
<svg version="1.0" xmlns="http://www.w3.org/2000/svg"
 width="496.000000pt" height="488.000000pt" viewBox="0 0 496.000000 488.000000"
 preserveAspectRatio="xMidYMid meet">

<g transform="translate(0.000000,488.000000) scale(0.100000,-0.100000)"
fill="#000000" stroke="none">
<path d="M2265 4766 c-72 -18 -133 -52 -154 -87 -13 -20 -21 -61 -25 -127 -15
-194 -52 -229 -280 -257 -486 -60 -732 -176 -762 -361 -10 -67 18 -139 105
-272 110 -165 192 -313 255 -456 58 -133 109 -299 110 -361 l1 -40 -65 -2
c-784 -28 -1285 -368 -1337 -908 -5 -44 -6 -345 -3 -670 l5 -590 25 -60 c76
-178 250 -312 501 -386 104 -30 353 -38 467 -15 229 46 458 158 695 338 43 33
82 71 87 84 9 24 10 24 155 24 l145 0 0 -206 c0 -116 4 -213 10 -224 14 -27
65 -35 95 -16 l25 16 2 213 3 212 80 0 80 0 3 -212 2 -213 25 -16 c30 -19 81
-11 95 16 6 11 10 108 10 224 l0 206 195 0 c107 0 195 -1 195 -3 0 -6 -46
-119 -99 -245 -59 -139 -63 -177 -19 -201 51 -29 68 -12 226 224 l147 220 205
5 c170 4 210 8 237 22 41 23 78 73 92 123 18 70 -12 397 -49 534 -10 38 -49
-26 341 566 102 154 211 319 242 368 31 48 61 87 65 87 16 0 93 -82 114 -123
28 -54 30 -147 4 -196 -16 -30 -116 -188 -440 -696 -85 -133 -110 -204 -103
-295 7 -95 39 -170 104 -240 67 -73 132 -106 244 -124 102 -17 133 -31 182
-85 50 -55 67 -121 67 -253 0 -95 2 -110 20 -128 25 -25 72 -26 93 -2 14 15
17 44 18 158 2 120 -1 146 -19 193 -56 143 -167 228 -331 251 -94 13 -132 32
-181 87 -50 57 -63 98 -58 182 l3 66 249 390 c137 215 261 415 275 445 22 47
26 69 26 146 0 84 -3 95 -37 166 -35 70 -78 120 -137 159 l-25 15 38 62 c20
33 42 86 48 116 27 125 -30 263 -136 333 -165 111 -390 48 -476 -132 -13 -27
-24 -51 -25 -53 -4 -4 -157 87 -179 106 -53 48 -71 145 -40 222 20 49 9 84
-31 102 -66 30 -119 -54 -119 -187 0 -143 57 -224 227 -320 48 -28 85 -54 83
-60 -2 -5 -77 -182 -167 -393 -189 -446 -156 -421 -268 -197 -73 147 -122 285
-142 400 -19 110 -6 359 24 475 57 214 157 433 307 670 120 189 131 213 137
282 8 78 -11 139 -59 193 -104 118 -349 202 -716 245 -194 22 -232 62 -248
260 -8 102 -22 132 -74 165 -80 51 -267 70 -385 41z m299 -146 c22 -8 26 -16
26 -52 0 -65 19 -168 39 -213 26 -58 77 -113 130 -139 57 -29 71 -32 212 -51
398 -54 617 -139 645 -252 11 -41 -8 -83 -106 -239 -205 -325 -317 -587 -361
-844 -17 -98 -17 -335 0 -430 28 -159 78 -285 219 -552 45 -86 82 -163 82
-171 0 -17 -367 -897 -382 -914 -8 -11 -122 -13 -592 -11 l-581 3 -3 464 c-2
512 -1 501 -65 501 -22 0 -46 -16 -105 -71 -115 -108 -272 -221 -392 -283 -59
-31 -112 -56 -118 -56 -31 0 68 236 214 506 68 127 142 279 164 338 74 196
101 390 80 581 -34 320 -145 595 -397 984 -76 117 -93 151 -93 182 0 116 210
202 630 259 190 26 236 40 294 91 73 64 116 183 116 321 0 40 3 47 23 51 45 9
297 7 321 -3z m1743 -1765 c111 -47 145 -167 82 -286 -18 -32 -36 -59 -42 -59
-12 0 -97 49 -97 56 0 2 7 16 16 29 21 33 14 74 -18 98 -47 35 -70 19 -132
-91 -30 -53 -63 -114 -72 -135 -17 -36 -17 -38 3 -65 37 -49 92 -40 128 23 10
17 13 17 53 -6 23 -13 42 -27 42 -31 0 -7 -316 -490 -713 -1088 -261 -394
-280 -421 -283 -417 -2 2 24 68 58 147 33 80 100 240 148 355 48 116 106 253
128 305 22 52 112 266 200 475 195 463 266 621 287 646 27 29 97 59 138 59 21
0 54 -7 74 -15z m-2767 -269 c0 -161 -55 -351 -164 -572 -41 -82 -80 -155 -88
-160 -7 -6 -51 -16 -98 -23 -336 -48 -616 -185 -766 -375 l-31 -39 -47 48
c-26 27 -59 74 -74 105 -26 53 -27 62 -27 210 0 127 4 167 20 220 l20 65 5
-118 c4 -102 8 -121 24 -133 28 -20 73 -17 96 6 19 19 20 33 20 255 l0 235 68
55 67 56 6 -72 c6 -82 22 -102 79 -97 49 4 60 31 60 156 0 56 1 102 3 102 1 0
35 14 76 30 40 17 77 30 82 30 5 0 9 -93 9 -209 0 -206 0 -210 22 -225 31 -22
64 -20 88 4 19 19 20 33 20 245 l0 225 23 5 c159 36 147 41 147 -62 0 -98 13
-123 63 -123 56 0 67 21 67 131 l0 98 33 4 c17 2 69 5 115 5 l82 2 0 -84z
m-378 -988 c-39 -88 -79 -203 -102 -294 -8 -35 -15 -42 -41 -48 -57 -11 -195
-6 -279 10 -79 15 -206 56 -223 73 -13 13 52 89 121 141 119 90 311 170 490
204 37 7 69 12 71 10 2 -2 -15 -45 -37 -96z m596 -530 l-3 -423 -70 -53 c-38
-29 -107 -74 -152 -102 l-83 -49 0 417 0 417 68 42 c37 23 103 71 147 107 44
35 83 65 88 65 4 1 6 -189 5 -421z m-1368 82 c6 -121 20 -150 72 -150 49 0 68
30 68 110 0 39 3 70 8 70 4 0 41 -11 82 -24 l75 -24 5 -224 c3 -122 7 -224 8
-225 1 0 16 -6 33 -12 32 -11 65 -2 81 23 4 6 8 102 8 214 l0 202 69 0 c38 0
76 3 85 6 14 5 16 -5 16 -79 0 -100 15 -128 68 -129 56 -2 67 19 70 135 l4
102 71 24 c40 12 78 25 85 28 9 4 12 -82 12 -409 l0 -414 -62 -22 c-142 -48
-188 -56 -338 -56 -119 0 -160 4 -229 23 -184 49 -345 162 -406 285 l-25 50 0
353 0 354 68 -52 67 -52 5 -107z m3269 -131 c15 -154 14 -221 -3 -245 -13 -17
-29 -19 -146 -22 -73 -2 -136 0 -140 5 -4 4 53 100 128 211 105 157 137 200
143 185 3 -10 12 -70 18 -134z"/>
</g>
</svg>
