<?xml version="1.0" standalone="no"?>
<!DOCTYPE svg PUBLIC "-//W3C//DTD SVG 20010904//EN"
 "http://www.w3.org/TR/2001/REC-SVG-20010904/DTD/svg10.dtd">
<svg version="1.0" xmlns="http://www.w3.org/2000/svg"
 width="438.000000pt" height="488.000000pt" viewBox="0 0 438.000000 488.000000"
 preserveAspectRatio="xMidYMid meet">

<g transform="translate(0.000000,488.000000) scale(0.100000,-0.100000)"
fill="#000000" stroke="none">
<path d="M1523 4726 c-172 -40 -350 -183 -430 -346 -73 -148 -88 -284 -49
-447 31 -132 28 -128 626 -918 112 -148 253 -335 313 -415 138 -183 164 -210
197 -210 41 0 16 -31 499 610 609 806 603 797 637 926 82 315 -83 641 -391
771 -110 47 -312 55 -428 19 -83 -26 -189 -89 -254 -149 l-63 -59 -65 60 c-68
62 -169 122 -252 148 -68 22 -262 27 -340 10z m292 -153 c201 -62 331 -221
355 -432 7 -64 12 -79 36 -99 30 -26 64 -24 98 6 16 15 18 28 13 97 -3 46 -15
111 -29 154 l-25 73 58 63 c192 205 508 212 714 15 180 -173 205 -438 61 -650
-25 -36 -157 -213 -295 -395 -138 -181 -332 -438 -432 -570 -100 -132 -184
-241 -188 -242 -3 -1 -89 108 -191 243 -102 135 -295 390 -429 567 -134 177
-258 342 -277 367 -99 132 -134 287 -99 438 21 89 56 152 126 227 131 139 326
193 504 138z"/>
<path d="M390 3806 c-72 -16 -109 -36 -153 -85 -78 -86 -72 -16 -72 -871 0
-731 1 -767 19 -815 22 -56 169 -300 611 -1010 151 -243 272 -442 284 -470 10
-20 16 -91 20 -218 5 -171 8 -190 25 -203 29 -21 80 -18 102 7 17 19 19 38 18
203 0 227 -7 249 -148 476 -57 91 -188 302 -291 470 -103 168 -217 352 -253
410 -155 248 -222 364 -232 398 -6 24 -10 300 -10 759 l0 722 30 35 c36 41 88
61 136 52 43 -9 99 -63 108 -106 3 -18 6 -317 6 -664 0 -559 2 -638 16 -682
15 -44 57 -89 383 -416 331 -333 368 -368 398 -368 40 0 73 33 73 74 0 26 -45
75 -350 381 -193 192 -355 357 -360 365 -5 8 -10 35 -10 60 0 54 27 103 69
125 40 20 110 19 141 -2 49 -34 866 -859 897 -906 45 -69 90 -182 102 -258 7
-38 11 -271 11 -586 0 -510 1 -524 20 -543 27 -27 81 -26 106 1 18 20 19 44
19 578 0 598 1 584 -54 731 -53 142 -86 180 -557 652 -310 309 -462 455 -491
469 -72 35 -167 36 -245 4 -17 -7 -18 19 -19 466 0 437 -3 503 -24 597 -7 30
-6 32 19 32 38 0 87 -23 116 -55 l25 -27 5 -399 c5 -394 5 -399 27 -420 30
-30 80 -30 105 0 17 22 18 49 18 410 0 434 -3 456 -66 529 -84 99 -213 130
-338 82 -22 -8 -40 -7 -75 4 -72 22 -102 24 -161 12z"/>
<path d="M3560 3806 c-91 -19 -157 -69 -202 -156 -23 -45 -23 -48 -26 -451 -3
-385 -2 -407 16 -429 25 -31 75 -31 105 -1 22 21 22 26 27 420 l5 399 25 27
c29 32 78 55 116 55 25 0 26 -2 19 -32 -21 -94 -24 -160 -24 -597 -1 -447 -2
-473 -18 -466 -79 32 -174 31 -245 -4 -55 -27 -926 -896 -974 -972 -40 -63
-88 -174 -112 -261 -15 -56 -17 -121 -17 -619 0 -534 1 -558 19 -578 22 -25
73 -28 102 -7 18 14 19 35 24 583 5 513 8 573 24 623 26 79 73 168 115 220 41
51 795 808 854 858 93 78 227 14 227 -109 0 -32 -7 -55 -21 -73 -11 -14 -173
-179 -360 -366 -285 -285 -339 -344 -339 -368 0 -39 33 -72 73 -72 29 0 67 35
387 355 242 242 363 369 380 402 l25 47 5 671 5 670 22 31 c24 34 77 64 112
64 37 0 86 -26 114 -60 l27 -32 -2 -742 -3 -741 -22 -42 c-21 -38 -241 -397
-691 -1125 -98 -157 -181 -304 -194 -340 -19 -56 -22 -84 -22 -244 -1 -165 1
-184 18 -203 22 -25 73 -28 102 -7 17 13 20 32 25 203 4 129 10 197 20 218 18
39 69 122 714 1165 86 140 167 278 179 305 21 49 21 59 24 799 3 841 6 805
-70 891 -83 94 -208 123 -332 75 -22 -8 -40 -7 -75 4 -72 22 -102 24 -161 12z"/>
</g>
</svg>
