<?xml version="1.0" standalone="no"?>
<!DOCTYPE svg PUBLIC "-//W3C//DTD SVG 20010904//EN"
 "http://www.w3.org/TR/2001/REC-SVG-20010904/DTD/svg10.dtd">
<svg version="1.0" xmlns="http://www.w3.org/2000/svg"
 width="512.000000pt" height="512.000000pt" viewBox="0 0 512.000000 512.000000"
 preserveAspectRatio="xMidYMid meet">

<g transform="translate(0.000000,512.000000) scale(0.100000,-0.100000)"
fill="#000000" stroke="none">
<path d="M1113 5095 c-166 -36 -308 -147 -384 -300 -63 -127 -69 -175 -69
-542 0 -310 1 -324 20 -343 25 -25 62 -26 83 -2 15 16 17 54 17 333 0 183 5
340 11 375 31 169 167 315 334 359 52 13 206 15 1202 15 l1143 0 0 -157 c0
-179 12 -247 62 -350 45 -93 169 -218 258 -262 106 -51 158 -61 363 -68 l187
-6 0 -1752 c0 -1211 -3 -1770 -11 -1811 -23 -126 -116 -257 -227 -317 -110
-60 -39 -57 -1542 -57 -1206 0 -1383 2 -1435 15 -167 44 -303 190 -334 359 -8
41 -11 502 -11 1466 0 1350 -1 1408 -18 1423 -25 23 -58 21 -82 -3 -20 -20
-20 -33 -20 -1432 0 -1573 -3 -1487 69 -1633 67 -134 194 -243 336 -288 l70
-22 1425 0 1425 0 70 22 c142 45 269 154 336 288 73 148 69 18 69 2026 l0
1807 -132 129 c-73 71 -276 267 -450 436 l-316 307 -1194 -1 c-959 0 -1205 -3
-1255 -14z m2995 -682 l137 -132 -120 -1 c-189 0 -293 36 -395 139 -101 103
-140 210 -140 395 l0 98 190 -183 c105 -101 253 -243 328 -316z"/>
<path d="M2375 4631 c-154 -42 -262 -107 -373 -226 -119 -127 -186 -286 -199
-466 -17 -245 103 -627 278 -889 177 -264 397 -378 598 -310 86 29 159 77 237
157 167 172 307 456 375 763 18 80 24 135 24 230 0 150 -16 216 -81 350 -40
80 -61 108 -138 185 -104 103 -169 144 -293 188 -79 27 -103 31 -223 34 -108
2 -149 -1 -205 -16z m340 -116 c173 -44 335 -175 414 -335 88 -180 92 -348 14
-615 -120 -413 -371 -725 -583 -725 -196 0 -430 271 -559 647 -132 386 -97
649 113 858 87 87 180 142 286 169 74 20 240 20 315 1z"/>
<path d="M2433 4301 c-108 -40 -176 -103 -227 -211 -27 -58 -31 -75 -31 -155
0 -80 4 -97 32 -157 42 -89 101 -151 182 -191 61 -30 72 -32 171 -32 92 0 112
3 160 26 85 41 144 99 187 187 36 71 38 82 38 167 0 85 -2 96 -38 167 -43 88
-99 143 -186 185 -76 36 -210 43 -288 14z m264 -137 c86 -53 141 -162 129
-257 -16 -139 -126 -236 -266 -237 -205 0 -331 211 -233 391 53 98 132 141
250 135 59 -2 82 -8 120 -32z"/>
<path d="M680 3780 c-16 -16 -20 -33 -20 -90 0 -57 4 -74 20 -90 25 -25 62
-26 83 -2 25 28 24 163 -1 185 -25 23 -58 21 -82 -3z"/>
<path d="M1170 2391 c-51 -11 -93 -35 -127 -75 -88 -99 -65 -258 49 -333 41
-28 44 -28 224 -31 208 -4 229 2 296 76 98 108 56 290 -81 350 -40 18 -298 27
-361 13z m332 -134 c32 -22 52 -74 42 -111 -3 -14 -20 -37 -36 -51 -29 -24
-34 -25 -185 -25 l-155 0 -29 29 c-52 52 -35 136 35 167 49 22 292 15 328 -9z"/>
<path d="M1927 2386 c-91 -25 -156 -114 -157 -214 0 -90 43 -162 122 -203 36
-18 73 -19 1058 -19 985 0 1022 1 1058 19 79 41 122 113 122 203 -1 105 -72
196 -169 217 -80 17 -1970 14 -2034 -3z m2054 -144 c41 -45 41 -102 0 -143
l-29 -29 -1002 0 -1002 0 -29 29 c-21 22 -29 39 -29 66 0 57 22 89 75 107 11
3 462 5 1003 5 l984 -2 29 -33z"/>
<path d="M1170 1711 c-51 -11 -93 -35 -127 -75 -88 -99 -65 -258 49 -333 41
-28 44 -28 224 -31 208 -4 229 2 296 76 98 108 56 290 -81 350 -40 18 -298 27
-361 13z m332 -134 c32 -22 52 -74 42 -111 -3 -14 -20 -37 -36 -51 -29 -24
-34 -25 -185 -25 l-155 0 -29 29 c-52 52 -35 136 35 167 49 22 292 15 328 -9z"/>
<path d="M1927 1706 c-91 -25 -156 -114 -157 -214 0 -90 43 -162 122 -203 36
-18 73 -19 1058 -19 985 0 1022 1 1058 19 79 41 122 113 122 203 -1 105 -72
196 -169 217 -80 17 -1970 14 -2034 -3z m2054 -144 c41 -45 41 -102 0 -143
l-29 -29 -1002 0 -1002 0 -29 29 c-21 22 -29 39 -29 66 0 57 22 89 75 107 11
3 462 5 1003 5 l984 -2 29 -33z"/>
<path d="M1170 951 c-51 -11 -93 -35 -127 -75 -88 -99 -65 -258 49 -333 41
-28 44 -28 224 -31 208 -4 229 2 296 76 98 108 56 290 -81 350 -40 18 -298 27
-361 13z m332 -134 c32 -22 52 -74 42 -111 -3 -14 -20 -37 -36 -51 -29 -24
-34 -25 -185 -25 l-155 0 -29 29 c-52 52 -35 136 35 167 49 22 292 15 328 -9z"/>
<path d="M1927 946 c-91 -25 -156 -114 -157 -214 0 -90 43 -162 122 -203 36
-18 73 -19 1058 -19 985 0 1022 1 1058 19 79 41 122 113 122 203 -1 105 -72
196 -169 217 -80 17 -1970 14 -2034 -3z m2054 -144 c41 -45 41 -102 0 -143
l-29 -29 -1002 0 -1002 0 -29 29 c-21 22 -29 39 -29 66 0 57 22 89 75 107 11
3 462 5 1003 5 l984 -2 29 -33z"/>
</g>
</svg>
