<?xml version="1.0" standalone="no"?>
<!DOCTYPE svg PUBLIC "-//W3C//DTD SVG 20010904//EN"
 "http://www.w3.org/TR/2001/REC-SVG-20010904/DTD/svg10.dtd">
<svg version="1.0" xmlns="http://www.w3.org/2000/svg"
 width="512.000000pt" height="512.000000pt" viewBox="0 0 512.000000 512.000000"
 preserveAspectRatio="xMidYMid meet">

<g transform="translate(0.000000,512.000000) scale(0.100000,-0.100000)"
fill="#000000" stroke="none">
<path d="M2173 5106 c-569 -109 -909 -672 -736 -1221 31 -99 61 -159 125 -251
59 -86 175 -200 212 -210 40 -10 80 23 84 68 3 31 -3 41 -58 94 -112 107 -191
237 -232 381 -29 102 -31 304 -4 403 75 278 297 500 576 576 100 28 301 26
403 -4 135 -39 244 -101 354 -204 70 -65 100 -72 138 -33 43 42 34 71 -47 150
-122 118 -253 191 -424 236 -102 26 -291 34 -391 15z"/>
<path d="M2188 4774 c-214 -51 -402 -241 -453 -456 -39 -168 8 -414 88 -458
24 -13 30 -13 55 0 51 29 55 55 22 150 -78 225 6 455 210 572 163 95 389 71
536 -56 136 -117 195 -338 134 -501 -36 -97 -37 -128 -5 -154 52 -40 94 -21
130 61 74 164 65 364 -23 533 -47 89 -155 199 -243 248 -127 71 -310 96 -451
61z"/>
<path d="M3115 4505 c-30 -29 -31 -41 -5 -147 24 -99 26 -252 5 -350 -31 -151
-94 -264 -217 -394 -97 -102 -106 -127 -63 -169 34 -35 65 -31 124 16 106 85
227 265 276 414 60 180 59 444 -1 595 -24 60 -79 76 -119 35z"/>
<path d="M2195 3982 c-75 -37 -136 -99 -172 -177 l-28 -60 -5 -1125 -5 -1124
-265 338 c-145 187 -280 354 -299 373 -143 139 -398 116 -517 -46 -72 -99 -89
-239 -41 -344 31 -69 439 -613 466 -622 46 -14 101 28 101 79 0 9 -95 143
-212 298 -228 305 -247 339 -229 417 14 62 50 108 105 136 86 43 176 26 242
-46 17 -19 142 -177 278 -351 136 -175 259 -327 273 -338 72 -57 180 -39 230
37 17 25 18 100 23 1163 6 1251 1 1159 67 1222 37 35 73 48 134 48 56 0 92
-15 131 -57 61 -64 58 -17 58 -1016 l0 -914 23 -21 c33 -31 80 -29 106 4 20
26 21 38 21 322 0 282 1 298 21 340 31 62 95 102 166 102 68 0 110 -18 150
-63 47 -53 53 -104 53 -416 0 -257 1 -279 18 -294 27 -24 85 -22 108 4 17 19
19 43 24 273 3 164 9 258 17 271 71 123 253 130 330 13 l28 -41 5 -288 c4
-256 7 -290 22 -306 26 -26 86 -22 109 6 17 21 19 42 19 190 0 140 3 172 19
206 79 171 315 148 361 -35 8 -32 10 -232 7 -695 -4 -727 -1 -698 -78 -845
-101 -193 -291 -344 -525 -417 l-89 -28 -435 0 -435 0 -88 28 c-147 46 -274
118 -373 213 -27 27 -152 185 -276 350 -124 166 -234 304 -243 308 -50 19
-105 -16 -105 -67 0 -35 425 -605 520 -697 125 -122 280 -209 459 -258 l96
-27 445 0 445 0 100 28 c343 93 619 356 707 672 21 78 22 95 26 730 3 679 1
739 -39 817 -32 62 -96 125 -158 155 -49 24 -68 28 -146 28 -76 0 -99 -4 -146
-26 l-56 -27 -24 57 c-32 78 -107 151 -184 180 -87 33 -207 27 -285 -15 -30
-16 -58 -30 -62 -32 -3 -2 -9 7 -13 19 -12 37 -96 119 -150 147 -76 39 -199
43 -283 9 l-61 -24 -3 516 -3 516 -28 57 c-34 70 -100 138 -164 170 -37 18
-68 24 -138 26 -82 3 -95 0 -150 -26z"/>
</g>
</svg>
