<svg width="20" height="20" viewBox="0 0 38 50" fill="none" xmlns="http://www.w3.org/2000/svg">
<path d="M15 0C13.3555 0 12 1.35547 12 3V5H4.18752C4.06252 4.97656 3.93752 4.97656 3.81252 5H2.00002C1.96877 5 1.93752 5 1.90627 5C1.35548 5.02734 0.925796 5.49609 0.95314 6.04688C0.980484 6.59766 1.44923 7.02734 2.00002 7H3.09377L6.68752 47.5C6.81252 48.8984 8.00392 50 9.40627 50H28.5938C29.9961 50 31.1875 48.8984 31.3125 47.5L34.9063 7H36C36.3594 7.00391 36.6953 6.81641 36.8789 6.50391C37.0586 6.19141 37.0586 5.80859 36.8789 5.49609C36.6953 5.18359 36.3594 4.99609 36 5H26V3C26 1.35547 24.6445 0 23 0H15ZM15 2H23C23.5625 2 24 2.4375 24 3V5H14V3C14 2.4375 14.4375 2 15 2ZM5.09377 7H32.9063L29.3125 47.3438C29.2813 47.6914 28.9102 48 28.5938 48H9.40627C9.08986 48 8.71877 47.6914 8.68752 47.3438L5.09377 7ZM12.9063 9.96875C12.8633 9.97656 12.8203 9.98828 12.7813 10C12.3164 10.1055 11.9883 10.5234 12 11V44C11.9961 44.3594 12.1836 44.6953 12.4961 44.8789C12.8086 45.0586 13.1914 45.0586 13.5039 44.8789C13.8164 44.6953 14.0039 44.3594 14 44V11C14.0117 10.7109 13.8945 10.4336 13.6875 10.2383C13.4766 10.0391 13.1914 9.94141 12.9063 9.96875ZM18.9063 9.96875C18.8633 9.97656 18.8203 9.98828 18.7813 10C18.3164 10.1055 17.9883 10.5234 18 11V44C17.9961 44.3594 18.1836 44.6953 18.4961 44.8789C18.8086 45.0586 19.1914 45.0586 19.5039 44.8789C19.8164 44.6953 20.0039 44.3594 20 44V11C20.0117 10.7109 19.8945 10.4336 19.6875 10.2383C19.4766 10.0391 19.1914 9.94141 18.9063 9.96875ZM24.9063 9.96875C24.8633 9.97656 24.8203 9.98828 24.7813 10C24.3164 10.1055 23.9883 10.5234 24 11V44C23.9961 44.3594 24.1836 44.6953 24.4961 44.8789C24.8086 45.0586 25.1914 45.0586 25.5039 44.8789C25.8164 44.6953 26.0039 44.3594 26 44V11C26.0117 10.7109 25.8945 10.4336 25.6875 10.2383C25.4766 10.0391 25.1914 9.94141 24.9063 9.96875Z" fill="white"/>
</svg>
